<svg width="133" height="36" viewBox="0 0 133 36" fill="none" xmlns="http://www.w3.org/2000/svg">
<path d="M19.5 21.3333L16.1667 18L19.5 14.6667M24.5 14.6667L27.8333 18L24.5 21.3333" stroke="#4D5562" stroke-width="2" stroke-linecap="round" stroke-linejoin="round"/>
<path d="M49.5753 16.6293C49.2273 14.4517 47.522 13.179 45.3693 13.179C42.7344 13.179 40.7905 15.1527 40.7905 18.4091C40.7905 21.6655 42.7244 23.6392 45.3693 23.6392C47.6065 23.6392 49.2422 22.2372 49.5753 20.2237L48.0241 20.2188C47.7607 21.5213 46.6669 22.2372 45.3793 22.2372C43.6342 22.2372 42.3168 20.8999 42.3168 18.4091C42.3168 15.9382 43.6293 14.581 45.3842 14.581C46.6818 14.581 47.7706 15.3118 48.0241 16.6293H49.5753ZM54.5108 23.6541C56.6635 23.6541 58.0705 22.0781 58.0705 19.7166C58.0705 17.3402 56.6635 15.7642 54.5108 15.7642C52.3581 15.7642 50.9512 17.3402 50.9512 19.7166C50.9512 22.0781 52.3581 23.6541 54.5108 23.6541ZM54.5158 22.4062C53.1088 22.4062 52.4526 21.1783 52.4526 19.7116C52.4526 18.25 53.1088 17.0071 54.5158 17.0071C55.9128 17.0071 56.5691 18.25 56.5691 19.7116C56.5691 21.1783 55.9128 22.4062 54.5158 22.4062ZM61.2163 18.9659C61.2163 17.7479 61.962 17.0518 62.9961 17.0518C64.0053 17.0518 64.6168 17.7131 64.6168 18.8217V23.5H66.1033V18.6428C66.1033 16.7536 65.0643 15.7642 63.5032 15.7642C62.3548 15.7642 61.604 16.2962 61.2511 17.1065H61.1566V15.8636H59.7298V23.5H61.2163V18.9659ZM73.8192 17.728C73.511 16.5398 72.5813 15.7642 70.9308 15.7642C69.2056 15.7642 67.9826 16.674 67.9826 18.0263C67.9826 19.1101 68.6388 19.831 70.0707 20.1491L71.3633 20.4325C72.0991 20.5966 72.4421 20.9247 72.4421 21.402C72.4421 21.9936 71.8107 22.456 70.8363 22.456C69.9464 22.456 69.3746 22.0732 69.1957 21.3224L67.7589 21.5412C68.0075 22.8935 69.131 23.6541 70.8462 23.6541C72.6907 23.6541 73.9684 22.6747 73.9684 21.2926C73.9684 20.2138 73.2823 19.5476 71.8803 19.2244L70.6673 18.946C69.8271 18.7472 69.4641 18.4638 69.4691 17.9467C69.4641 17.3601 70.1005 16.9425 70.9457 16.9425C71.8704 16.9425 72.2979 17.4545 72.4719 17.9666L73.8192 17.728ZM79.1674 15.8636H77.6014V14.0341H76.1149V15.8636H74.9963V17.0568H76.1149V21.5661C76.1099 22.9531 77.1689 23.6243 78.3422 23.5994C78.8145 23.5945 79.1326 23.505 79.3066 23.4403L79.0382 22.2124C78.9387 22.2322 78.7548 22.277 78.5162 22.277C78.0339 22.277 77.6014 22.1179 77.6014 21.2578V17.0568H79.1674V15.8636ZM80.8118 23.5H82.2983V18.8366C82.2983 17.8374 83.0689 17.1165 84.1229 17.1165C84.4311 17.1165 84.7791 17.1712 84.8984 17.206V15.7841C84.7493 15.7642 84.456 15.7493 84.267 15.7493C83.3722 15.7493 82.6065 16.2564 82.3281 17.0767H82.2486V15.8636H80.8118V23.5ZM91.0222 20.3331C91.0272 21.6307 90.0627 22.2472 89.2275 22.2472C88.3077 22.2472 87.6713 21.581 87.6713 20.5419V15.8636H86.1848V20.7209C86.1848 22.6151 87.2239 23.5994 88.6905 23.5994C89.839 23.5994 90.6195 22.9929 90.9725 22.1776H91.052V23.5H92.5137V15.8636H91.0222V20.3331ZM97.7276 23.6541C99.5323 23.6541 100.701 22.5703 100.865 21.0838H99.418C99.229 21.9091 98.5877 22.3963 97.7376 22.3963C96.4798 22.3963 95.6694 21.3473 95.6694 19.6818C95.6694 18.0462 96.4947 17.017 97.7376 17.017C98.6822 17.017 99.2589 17.6136 99.418 18.3295H100.865C100.706 16.7884 99.4478 15.7642 97.7127 15.7642C95.56 15.7642 94.168 17.3849 94.168 19.7166C94.168 22.0185 95.5103 23.6541 97.7276 23.6541ZM106.019 15.8636H104.453V14.0341H102.966V15.8636H101.848V17.0568H102.966V21.5661C102.961 22.9531 104.02 23.6243 105.194 23.5994C105.666 23.5945 105.984 23.505 106.158 23.4403L105.89 22.2124C105.79 22.2322 105.606 22.277 105.368 22.277C104.885 22.277 104.453 22.1179 104.453 21.2578V17.0568H106.019V15.8636ZM110.798 23.6541C112.951 23.6541 114.358 22.0781 114.358 19.7166C114.358 17.3402 112.951 15.7642 110.798 15.7642C108.645 15.7642 107.238 17.3402 107.238 19.7166C107.238 22.0781 108.645 23.6541 110.798 23.6541ZM110.803 22.4062C109.396 22.4062 108.74 21.1783 108.74 19.7116C108.74 18.25 109.396 17.0071 110.803 17.0071C112.2 17.0071 112.856 18.25 112.856 19.7116C112.856 21.1783 112.2 22.4062 110.803 22.4062ZM116.017 23.5H117.503V18.8366C117.503 17.8374 118.274 17.1165 119.328 17.1165C119.636 17.1165 119.984 17.1712 120.104 17.206V15.7841C119.954 15.7642 119.661 15.7493 119.472 15.7493C118.577 15.7493 117.812 16.2564 117.533 17.0767H117.454V15.8636H116.017V23.5Z" fill="#4D5562"/>
</svg>
