<svg width="108" height="36" viewBox="0 0 108 36" fill="none" xmlns="http://www.w3.org/2000/svg">
<path d="M23.7678 19.7678C24.2366 19.2989 24.5 18.663 24.5 18C24.5 17.337 24.2366 16.7011 23.7678 16.2322C23.2989 15.7634 22.663 15.5 22 15.5C21.337 15.5 20.7011 15.7634 20.2322 16.2322C19.7634 16.7011 19.5 17.337 19.5 18C19.5 18.663 19.7634 19.2989 20.2322 19.7678C20.7011 20.2366 21.337 20.5 22 20.5C22.663 20.5 23.2989 20.2366 23.7678 19.7678Z" stroke="#4D5562" stroke-width="2" stroke-linecap="round" stroke-linejoin="round"/>
<path d="M14.0483 18C15.11 14.6192 18.2692 12.1667 22 12.1667C25.7317 12.1667 28.89 14.6192 29.9517 18C28.89 21.3808 25.7317 23.8333 22 23.8333C18.2692 23.8333 15.11 21.3808 14.0483 18Z" stroke="#4D5562" stroke-width="2" stroke-linecap="round" stroke-linejoin="round"/>
<path d="M41.1186 23.5H42.6548V19.647H44.7429C44.7777 19.647 44.8075 19.647 44.8423 19.647L46.9105 23.5H48.6605L46.4034 19.3786C47.6513 18.9162 48.2727 17.8771 48.2727 16.5099C48.2727 14.6357 47.1094 13.3182 44.7479 13.3182H41.1186V23.5ZM42.6548 18.3246V14.6357H44.5838C46.1001 14.6357 46.7266 15.3565 46.7266 16.5099C46.7266 17.6584 46.1001 18.3246 44.6037 18.3246H42.6548ZM54.8601 20.3331C54.8651 21.6307 53.9006 22.2472 53.0653 22.2472C52.1456 22.2472 51.5092 21.581 51.5092 20.5419V15.8636H50.0227V20.7209C50.0227 22.6151 51.0618 23.5994 52.5284 23.5994C53.6768 23.5994 54.4574 22.9929 54.8104 22.1776H54.8899V23.5H56.3516V15.8636H54.8601V20.3331ZM59.8354 18.9659C59.8354 17.7479 60.5811 17.0518 61.6152 17.0518C62.6245 17.0518 63.236 17.7131 63.236 18.8217V23.5H64.7225V18.6428C64.7225 16.7536 63.6834 15.7642 62.1223 15.7642C60.9739 15.7642 60.2232 16.2962 59.8702 17.1065H59.7757V15.8636H58.3489V23.5H59.8354V18.9659ZM70.2807 15.8636H68.7147V14.0341H67.2282V15.8636H66.1096V17.0568H67.2282V21.5661C67.2232 22.9531 68.2821 23.6243 69.4554 23.5994C69.9277 23.5945 70.2459 23.505 70.4199 23.4403L70.1515 22.2124C70.052 22.2322 69.8681 22.277 69.6294 22.277C69.1472 22.277 68.7147 22.1179 68.7147 21.2578V17.0568H70.2807V15.8636ZM71.9251 23.5H73.4116V15.8636H71.9251V23.5ZM72.6758 14.6854C73.1879 14.6854 73.6154 14.2876 73.6154 13.8004C73.6154 13.3132 73.1879 12.9105 72.6758 12.9105C72.1587 12.9105 71.7362 13.3132 71.7362 13.8004C71.7362 14.2876 72.1587 14.6854 72.6758 14.6854ZM75.4114 23.5H76.8979V18.7919C76.8979 17.7628 77.6188 17.0469 78.464 17.0469C79.2892 17.0469 79.861 17.5938 79.861 18.424V23.5H81.3425V18.6328C81.3425 17.7131 81.9043 17.0469 82.8738 17.0469C83.6593 17.0469 84.3056 17.4844 84.3056 18.5185V23.5H85.7921V18.3793C85.7921 16.6342 84.8176 15.7642 83.4355 15.7642C82.3368 15.7642 81.5115 16.2912 81.1436 17.1065H81.0641C80.731 16.2713 80.03 15.7642 79.0108 15.7642C78.0016 15.7642 77.2509 16.2663 76.9327 17.1065H76.8382V15.8636H75.4114V23.5ZM91.0756 23.6541C92.7411 23.6541 93.9194 22.8338 94.2575 21.5909L92.8505 21.3374C92.582 22.0582 91.9357 22.4261 91.0906 22.4261C89.8178 22.4261 88.9627 21.6009 88.9229 20.1293H94.3519V19.6023C94.3519 16.843 92.7013 15.7642 90.9712 15.7642C88.8434 15.7642 87.4414 17.3849 87.4414 19.7315C87.4414 22.103 88.8235 23.6541 91.0756 23.6541ZM88.9279 19.0156C88.9876 17.9318 89.7731 16.9922 90.9812 16.9922C92.1346 16.9922 92.8903 17.8473 92.8952 19.0156H88.9279Z" fill="#4D5562"/>
</svg>
